Coordinates
version=1
nRows=17
nColumns=33
inDegrees=yes

Units are S.I. units (second, meters, Newtons, ...)
Angles are in degrees.

endheader
time	ground_thorax_rot_x	ground_thorax_rot_y	ground_thorax_rot_z	ground_thorax_tx	ground_thorax_ty	ground_thorax_tz	clav_prot_r	clav_elev_r	scapula_abduction_r	scapula_elevation_r	scapula_upward_rot_r	scapula_winging_r	shoulder_elv_r	plane_of_elev_r	axial_rot_r	elbow_flexion_r	pro_sup_r	wrist_flex_r	wrist_dev_r	clav_prot_l	clav_elev_l	scapula_abduction_l	scapula_elevation_l	scapula_upward_rot_l	scapula_winging_l	shoulder_elv_l	plane_of_elev_l	axial_rot_l	elbow_flexion_l	pro_sup_l	wrist_flex_l	wrist_dev_l
      4.23000000	    -39.34701802	    -12.22039204	      6.15904675	    -75.94406552	    795.87048568	     -7.47231650	      7.25566510	    -45.00000000	     37.22025691	    -45.00000000	    -32.74485361	  -3329.77055461	  -2635.30560701	    151.15808391	    -99.99446908	    729.75977647	     23.55695115	     17.50730070	     10.35765182	     18.28977866	     41.41566866	    -42.72548683	    -44.85711264	    -41.70451869	   1157.71522627	  -2452.69623612	     24.53280918	    -24.25797511	    725.83646096	     18.16944750	     11.50624321	    -18.74185928
      4.24000000	    -39.38351895	    -12.74793279	      6.72154559	    -81.98304542	    796.36545913	     -7.79753909	      8.37445468	    -45.00000000	     37.28369756	    -45.00000000	    -32.62881879	  -3330.60928955	  -2635.50725628	    151.63786570	    -96.44228301	    729.99600711	     24.84906980	     17.47785596	      9.69083027	     18.33299122	     41.18250299	    -41.95859673	    -45.00000000	    -41.94675831	   1157.64227303	  -2452.36147668	     23.97090499	    -26.21270351	    726.06764827	     18.48519689	     11.87833876	    -18.96450381
      4.25000000	    -39.46401900	    -13.15255655	      7.57471706	    -88.09685478	    796.99181876	     -8.10812316	      7.52982566	    -45.00000000	     35.67345199	    -45.00000000	    -36.05740918	  -3330.29556690	  -2634.69608052	    151.15067803	    -97.80532458	    730.04667458	     25.72338099	     17.57004525	     10.02607112	     17.80180018	     40.74510469	    -41.81804873	    -45.00000000	    -43.39644453	   1158.11344800	  -2452.22276954	     24.12147183	    -26.63027876	    726.21488411	     18.71110457	     11.27583760	    -19.00947890
      4.26000000	    -39.54232043	    -13.42544826	      8.13893654	    -94.25821614	    797.75330701	     -8.40973672	      7.70274606	    -45.00000000	     35.03146251	    -45.00000000	    -37.66114248	  -3330.59728166	  -2634.38657922	    151.11767786	    -97.33649268	    730.21630950	     26.75619309	     17.62633862	      9.83686320	     17.75636729	     40.51737689	    -41.60739990	    -45.00000000	    -44.06954449	   1158.46660662	  -2452.13403410	     23.92690101	    -27.76547571	    726.26706070	     19.05781253	     11.31155520	    -19.14902754
      4.27000000	    -39.55682165	    -13.73896231	      8.62895568	   -100.43894768	    798.64251936	     -8.72515994	      7.86719447	    -45.00000000	     34.56654224	    -45.00000000	    -39.13101229	  -3330.95599730	  -2634.02284624	    151.05113347	    -97.14017259	    730.39930517	     27.91713934	     17.75098155	      9.75094107	     17.70647681	     40.34809453	    -41.23185814	    -45.00000000	    -44.85350795	   1158.70320683	  -2451.85783893	     23.71086552	    -28.67705110	    726.47965673	     19.45669809	     11.20724975	    -19.25860390
      4.28000000	    -39.63525151	    -13.82790214	      8.82624888	   -106.62046141	    799.67583479	     -9.04747347	      7.92874082	    -45.00000000	     34.21967720	    -45.00000000	    -40.28868591	  -3331.34111400	  -2633.84092234	    150.91332034	    -97.06238076	    730.55481472	     29.12043338	     17.87254399	      9.68946923	     17.60833507	     40.13860511	    -40.81572782	    -45.00000000	    -45.00000000	   1158.98087529	  -2451.71010623	     23.43338188	    -29.61434510	    726.65713919	     19.88507934	     11.19885452	    -19.41986089
      4.29000000	    -39.66564753	    -13.85379491	      8.98937400	   -112.78410776	    800.87383768	     -9.36244462	      8.11338371	    -45.00000000	     33.96922320	    -45.00000000	    -41.20149018	  -3331.66444140	  -2633.58796941	    150.94561217	    -96.81768893	    730.68458547	     30.46634743	     17.96630197	      9.53477770	     17.46764658	     40.08988744	    -40.34747849	    -45.00000000	    -45.00000000	   1159.21954267	  -2451.61502771	     23.15691892	    -30.90913334	    726.84178811	     20.39513210	     11.18675553	    -19.57984387
      4.30000000	    -39.74333083	    -13.87472358	      9.10429166	   -118.91903599	    802.27203928	     -9.63889809	      8.27274709	    -45.00000000	     33.62768326	    -45.00000000	    -42.04283093	  -3331.97319996	  -2633.38452025	    150.94828399	    -96.22136845	    730.90126431	     31.85486368	     18.05581905	      9.31056625	     17.21803218	     40.01974886	    -40.00260930	    -45.00000000	    -45.00000000	   1159.58504748	  -2451.50954337	     22.84786498	    -32.21388688	    727.07179809	     20.91206089	     11.24606359	    -19.81334717
      4.31000000	    -39.76154537	    -13.84548978	      9.17350248	   -124.99456916	    803.87572535	     -9.87527907	      8.39699351	    -45.00000000	     33.39273162	    -45.00000000	    -42.95585776	  -3332.34624601	  -2633.13895745	    150.85017980	    -95.98857154	    731.07434361	     33.27201412	     18.15332464	      9.16964248	     17.18524529	     39.94551845	    -39.56570909	    -45.00000000	    -45.00000000	   1159.80371305	  -2451.45223410	     22.58499293	    -33.18329742	    727.23457717	     21.43198563	     11.20429133	    -19.97328135
      4.32000000	    -39.86406665	    -13.77262899	      9.25744534	   -130.97975328	    805.69041906	    -10.06554443	      8.55138728	    -45.00000000	     33.18475872	    -45.00000000	    -43.76293159	  -3332.74775176	  -2632.93776349	    150.82907606	    -95.58635490	    731.40040346	     34.66505853	     18.26468763	      8.96868247	     16.98820868	     39.82990136	    -39.23520718	    -45.00000000	    -45.00000000	   1160.07330652	  -2451.27985211	     22.29863592	    -34.20089781	    727.44513073	     21.96100589	     11.16720808	    -20.16024715
      4.33000000	    -39.91500923	    -13.80508031	      9.36847809	   -136.83822555	    807.69773179	    -10.22308171	      8.67466727	    -45.00000000	     33.01898342	    -45.00000000	    -44.36170742	  -3333.17088275	  -2632.67299502	    150.82118402	    -94.94856573	    731.71879210	     36.01526097	     18.31657559	      8.67467965	     16.93610104	     39.77034853	    -38.88307947	    -45.00000000	    -45.00000000	   1160.36379908	  -2451.16236064	     21.93904288	    -35.30504411	    727.67322368	     22.49832903	     11.16252176	    -20.36294188
      4.34000000	    -40.05035750	    -13.55142052	      9.20916812	   -142.52951443	    809.87042042	    -10.36413672	      8.79305420	    -45.00000000	     32.94831358	    -45.00000000	    -45.00000000	  -3333.52737271	  -2632.55629777	    150.69894452	    -94.89756202	    732.02437665	     37.39801065	     18.43039022	      8.56402987	     16.77418147	     39.63544706	    -38.65134636	    -45.00000000	    -45.00000000	   1160.64799467	  -2451.06150203	     21.77677458	    -36.03219243	    727.83117952	     23.05970199	     11.01644298	    -20.50276045
      4.35000000	    -40.10181508	    -13.32557708	      9.07776858	   -148.01116764	    812.16275589	    -10.51159899	      8.87254309	    -45.00000000	     32.95030264	    -45.00000000	    -45.00000000	  -3334.00238615	  -2632.47259753	    150.75136946	    -94.32430874	    732.29930324	     38.74782964	     18.51388905	      8.38436663	     16.63913370	     39.45124131	    -38.42479360	    -45.00000000	    -45.00000000	   1160.89539479	  -2450.97317294	     21.53617068	    -36.89079743	    728.05511005	     23.62307831	     10.97960618	    -20.70420265
      4.36000000	    -40.06231317	    -13.25869634	      9.15238766	   -153.26489033	    814.55184921	    -10.66209224	      8.97041563	    -45.00000000	     33.01865106	    -45.00000000	    -45.00000000	  -3334.63498562	  -2632.30386877	    150.79622870	    -93.03831081	    732.68176271	     39.93510032	     18.46939243	      7.93571414	     16.66579155	     39.30542511	    -38.13457238	    -45.00000000	    -45.00000000	   1161.10439954	  -2450.89143656	     21.14910429	    -38.58221910	    728.35029959	     24.27116873	     10.92813024	    -20.87879389
      4.37000000	    -40.17709932	    -13.04731197	      9.07914269	   -158.27348727	    817.01816710	    -10.80094402	      9.03533214	    -45.00000000	     33.03708343	    -45.00000000	    -45.00000000	  -3335.07529614	  -2632.29885326	    150.91101410	    -92.50674599	    732.91053469	     41.03552974	     18.50135854	      7.75168168	     16.58335088	     39.29956733	    -37.90448599	    -45.00000000	    -45.00000000	   1161.35147753	  -2450.66190333	     20.93582942	    -39.53925097	    728.53687585	     24.84003252	     10.73171124	    -21.00735279
      4.38000000	    -40.21419042	    -12.74077999	      8.87298935	   -163.02493222	    819.53683674	    -10.91705239	      9.09201185	    -45.00000000	     33.06945036	    -45.00000000	    -45.00000000	  -3335.43220416	  -2632.16158009	    150.93065753	    -92.26430984	    733.16976034	     42.06695432	     18.53997194	      7.55599770	     16.46223575	     39.22381143	    -37.71728040	    -45.00000000	    -45.00000000	   1161.48828723	  -2450.55860188	     20.72042819	    -40.13206503	    728.72510953	     25.40677209	     10.73730539	    -21.20301098
      4.39000000	    -40.26156533	    -12.30494819	      8.58919330	   -167.51234923	    822.08267818	    -11.00363845	      9.20461428	    -45.00000000	     33.12104389	    -45.00000000	    -45.00000000	  -3335.72407635	  -2632.05112613	    150.96571526	    -92.33031509	    733.31016422	     43.09725783	     18.63597397	      7.51976026	     16.37287956	     39.03803764	    -37.47744766	    -45.00000000	    -45.00000000	   1161.59392531	  -2450.46043482	     20.76768032	    -39.89624849	    728.83021212	     25.98927675	     10.69586882	    -21.36080134
